<svg xmlns="http://www.w3.org/2000/svg" viewBox="0 0 600 750" role="img" aria-label="Press-on nail design">
  <defs>
    <linearGradient id="stamp04g" x1="0" y1="0" x2="1" y2="1">
      <stop offset="0%" stop-color="#f9c8d6"/>
      <stop offset="100%" stop-color="#ef96b3"/>
    </linearGradient>
    <radialGradient id="stamp04gbg" cx="50%" cy="38%" r="75%">
      <stop offset="0%" stop-color="#fffdf9"/>
      <stop offset="100%" stop-color="#fbe2e9"/>
    </radialGradient>
  </defs>
  <rect width="600" height="750" fill="url(#stamp04gbg)"/>
  <rect x="16" y="16" width="568" height="718" fill="none" stroke="#dd7a99" stroke-opacity="0.35" stroke-width="2"/>
  <text x="34" y="50" font-family="Georgia,serif" font-size="26" fill="#dd7a99" opacity="0.5">✶</text>
  <text x="566" y="724" text-anchor="end" font-family="Georgia,serif" font-size="26" fill="#dd7a99" opacity="0.5">✶</text>
  <g transform="translate(122 512) rotate(-15)"><ellipse cx="0" cy="6" rx="29" ry="9" fill="#000" opacity="0.06"/><path d="M -29 0 L -29 -99 C -29 -135 -15.950000000000001 -150 0 -150 C 15.950000000000001 -150 29 -135 29 -99 L 29 0 Z" fill="url(#stamp04g)" stroke="#dd7a99" stroke-width="1.5"/><ellipse cx="0" cy="-8" rx="23" ry="9" fill="#ffffff" opacity="0.25"/><path d="M -15.950000000000001 -132 C -24.65 -82.5 -20.299999999999997 -30 -13.05 -6 L -3.48 -8 C -9.28 -37.5 -11.600000000000001 -90 -5.22 -135 Z" fill="#ffffff" opacity="0.18"/><circle cx="-8" cy="-108" r="3" fill="#ffffff" opacity="0.9"/><circle cx="9" cy="-82.5" r="3" fill="#ffffff" opacity="0.9"/><circle cx="-6" cy="-60" r="3" fill="#ffffff" opacity="0.9"/></g>
  <g transform="translate(211 520) rotate(-7)"><ellipse cx="0" cy="6" rx="29" ry="9" fill="#000" opacity="0.06"/><path d="M -29 0 L -29 -117.48 C -29 -160.20000000000002 -15.950000000000001 -178 0 -178 C 15.950000000000001 -178 29 -160.20000000000002 29 -117.48 L 29 0 Z" fill="url(#stamp04g)" stroke="#dd7a99" stroke-width="1.5"/><ellipse cx="0" cy="-8" rx="23" ry="9" fill="#ffffff" opacity="0.25"/><path d="M -15.950000000000001 -156.64000000000001 C -24.65 -97.9 -20.299999999999997 -35.6 -13.05 -6 L -3.48 -8 C -9.28 -44.5 -11.600000000000001 -106.8 -5.22 -160.20000000000002 Z" fill="#ffffff" opacity="0.18"/><circle cx="-8" cy="-128.16" r="3" fill="#ffffff" opacity="0.9"/><circle cx="9" cy="-97.9" r="3" fill="#ffffff" opacity="0.9"/><circle cx="-6" cy="-71.2" r="3" fill="#ffffff" opacity="0.9"/></g>
  <g transform="translate(300 524) rotate(0)"><ellipse cx="0" cy="6" rx="29" ry="9" fill="#000" opacity="0.06"/><path d="M -29 0 L -29 -133.32 C -29 -181.8 -15.950000000000001 -202 0 -202 C 15.950000000000001 -202 29 -181.8 29 -133.32 L 29 0 Z" fill="url(#stamp04g)" stroke="#dd7a99" stroke-width="1.5"/><ellipse cx="0" cy="-8" rx="23" ry="9" fill="#ffffff" opacity="0.25"/><path d="M -15.950000000000001 -177.76 C -24.65 -111.10000000000001 -20.299999999999997 -40.400000000000006 -13.05 -6 L -3.48 -8 C -9.28 -50.5 -11.600000000000001 -121.19999999999999 -5.22 -181.8 Z" fill="#ffffff" opacity="0.18"/><circle cx="-8" cy="-145.44" r="3" fill="#ffffff" opacity="0.9"/><circle cx="9" cy="-111.10000000000001" r="3" fill="#ffffff" opacity="0.9"/><circle cx="-6" cy="-80.80000000000001" r="3" fill="#ffffff" opacity="0.9"/><path d="M 0 -90.64 C -17.6 -108.24000000000001 -8 -121.04 0 -110.64 C 8 -121.04 17.6 -108.24000000000001 0 -90.64 Z" fill="#e23b53" /><circle cx="-5" cy="-101" r="1.4" fill="#ffe08a" opacity="1"/><circle cx="5" cy="-101" r="1.4" fill="#ffe08a" opacity="1"/><circle cx="0" cy="-84.84" r="1.4" fill="#ffe08a" opacity="1"/><path d="M -5 -133.32 Q 0 -145.44 5 -133.32" fill="none" stroke="#4e9b5a" stroke-width="3" stroke-linecap="round"/></g>
  <g transform="translate(389 520) rotate(7)"><ellipse cx="0" cy="6" rx="29" ry="9" fill="#000" opacity="0.06"/><path d="M -29 0 L -29 -117.48 C -29 -160.20000000000002 -15.950000000000001 -178 0 -178 C 15.950000000000001 -178 29 -160.20000000000002 29 -117.48 L 29 0 Z" fill="url(#stamp04g)" stroke="#dd7a99" stroke-width="1.5"/><ellipse cx="0" cy="-8" rx="23" ry="9" fill="#ffffff" opacity="0.25"/><path d="M -15.950000000000001 -156.64000000000001 C -24.65 -97.9 -20.299999999999997 -35.6 -13.05 -6 L -3.48 -8 C -9.28 -44.5 -11.600000000000001 -106.8 -5.22 -160.20000000000002 Z" fill="#ffffff" opacity="0.18"/><circle cx="-8" cy="-128.16" r="3" fill="#ffffff" opacity="0.9"/><circle cx="9" cy="-97.9" r="3" fill="#ffffff" opacity="0.9"/><circle cx="-6" cy="-71.2" r="3" fill="#ffffff" opacity="0.9"/></g>
  <g transform="translate(478 512) rotate(15)"><ellipse cx="0" cy="6" rx="29" ry="9" fill="#000" opacity="0.06"/><path d="M -29 0 L -29 -99 C -29 -135 -15.950000000000001 -150 0 -150 C 15.950000000000001 -150 29 -135 29 -99 L 29 0 Z" fill="url(#stamp04g)" stroke="#dd7a99" stroke-width="1.5"/><ellipse cx="0" cy="-8" rx="23" ry="9" fill="#ffffff" opacity="0.25"/><path d="M -15.950000000000001 -132 C -24.65 -82.5 -20.299999999999997 -30 -13.05 -6 L -3.48 -8 C -9.28 -37.5 -11.600000000000001 -90 -5.22 -135 Z" fill="#ffffff" opacity="0.18"/><circle cx="-8" cy="-108" r="3" fill="#ffffff" opacity="0.9"/><circle cx="9" cy="-82.5" r="3" fill="#ffffff" opacity="0.9"/><circle cx="-6" cy="-60" r="3" fill="#ffffff" opacity="0.9"/></g>
</svg>
